<?xml version="1.0" encoding="UTF-8" standalone="no" ?>
<!DOCTYPE svg PUBLIC "-//W3C//DTD SVG 1.1//EN" "http://www.w3.org/Graphics/SVG/1.1/DTD/svg11.dtd">
<svg xmlns="http://www.w3.org/2000/svg" xmlns:xlink="http://www.w3.org/1999/xlink" version="1.1" width="791" height="791" viewBox="0 0 1080 1080" xml:space="preserve">
<desc>Created with Fabric.js 6.5.3</desc>
<defs>
</defs>
<g transform="matrix(-5.9603 0 0 5.9603 585.3572 501.4828)"  >
<polyline style="stroke: none; stroke-width: 1; stroke-dasharray: none; stroke-linecap: butt; stroke-dashoffset: 0; stroke-linejoin: miter; stroke-miterlimit: 4; fill: rgb(255,255,255); fill-rule: nonzero; opacity: 1;"  points="2.408,-18.903 -10.619,-15.045 -4.768,0.122 -10.536,-0.17 -6.952,4.58 -4.952,6.455 -3.827,9.122 -3.827,13.663 -0.286,16.58 0.714,18.903 10.619,18.903 7.153,6.522 5.661,-5.119 3.809,-7.814 4.643,-13.18 2.408,-18.903 " />
</g>
<g transform="matrix(-5.9603 0 0 5.9603 424.893 496.8816)"  >
<polyline style="stroke: none; stroke-width: 1; stroke-dasharray: none; stroke-linecap: butt; stroke-dashoffset: 0; stroke-linejoin: miter; stroke-miterlimit: 4; fill: rgb(255,255,255); fill-rule: nonzero; opacity: 1;"  points="11.0835,19.675 -11.8955,19.675 -9.7085,6.31 -10.6665,-5.592 -12.1665,-8.498 -10.6665,-13.717 -12.1665,-19.675 -1.3335,-18.356 4.5655,-18.711 8.1665,-17.856 12.1665,-17.106 " />
</g>
<g transform="matrix(-5.9603 0 0 5.9603 440.6132 542.2958)"  >
<polygon style="stroke: none; stroke-width: 1; stroke-dasharray: none; stroke-linecap: butt; stroke-dashoffset: 0; stroke-linejoin: miter; stroke-miterlimit: 4; fill: rgb(208,207,206); fill-rule: nonzero; opacity: 1;"  points="0.079,-5.5055 1.579,-0.7655 1.319,3.3645 0.079,8.7345 1.319,12.0555 -4.529,12.0555 -2.921,8.7345 -1.681,3.3645 -1.421,-0.7655 -2.921,-5.5055 -2.921,-10.3855 2.319,-12.0555 4.529,-11.8055 0.079,-10.3855 " />
</g>
<g transform="matrix(-5.9603 0 0 5.9603 509.2632 495.2752)"  >
<polygon style="stroke: none; stroke-width: 1; stroke-dasharray: none; stroke-linecap: butt; stroke-dashoffset: 0; stroke-linejoin: miter; stroke-miterlimit: 4; fill: rgb(208,207,206); fill-rule: nonzero; opacity: 1;"  points="4.253,6.0455 1.793,19.9445 -2.317,19.9445 -1.187,9.4355 -1.367,-0.5145 -2.771,-8.5865 -4.253,-15.9735 1.793,-19.9445 3.293,-13.9845 1.793,-8.7645 3.293,-5.8645 " />
</g>
<g transform="matrix(-5.9603 0 0 5.9603 678.2028 546.5992)"  >
<polygon style="stroke: none; stroke-width: 1; stroke-dasharray: none; stroke-linecap: butt; stroke-dashoffset: 0; stroke-linejoin: miter; stroke-miterlimit: 4; fill: rgb(255,255,255); fill-rule: nonzero; opacity: 1;"  points="-1.7085,-2.6665 -1.7085,2.6665 1.7085,-2.1665 " />
</g>
<g transform="matrix(-5.9603 0 0 5.9603 691.8176 638.5803)"  >
<line style="stroke: rgb(97,178,228); stroke-width: 2; stroke-dasharray: none; stroke-linecap: round; stroke-dashoffset: 0; stroke-linejoin: round; stroke-miterlimit: 4; fill: none; fill-rule: nonzero; opacity: 1;"  x1="-3.0604500000000003" y1="0.24084999999999823" x2="3.0604500000000003" y2="-0.24084999999999823" />
</g>
<g transform="matrix(-5.9603 0 0 5.9603 699.931 614.3969)"  >
<polygon style="stroke: none; stroke-width: 1; stroke-dasharray: none; stroke-linecap: butt; stroke-dashoffset: 0; stroke-linejoin: miter; stroke-miterlimit: 4; fill: rgb(255,255,255); fill-rule: nonzero; opacity: 1;"  points="-2.063,-3.4585 -3.646,-0.7085 -1.313,3.4585 3.646,2.9585 " />
</g>
<g transform="matrix(-5.9603 0 0 5.9603 424.8929 496.8815)"  >
<polyline style="stroke: rgb(0,0,0); stroke-width: 2; stroke-dasharray: none; stroke-linecap: round; stroke-dashoffset: 0; stroke-linejoin: round; stroke-miterlimit: 4; fill: none; fill-rule: nonzero; opacity: 1;"  points="-11.8955,19.675 -9.7085,6.31 -10.6665,-5.592 -12.1665,-8.498 -10.6665,-13.717 -12.1665,-19.675 -1.3335,-18.356 4.5655,-18.711 8.1665,-17.856 12.1665,-17.106 " />
</g>
<g transform="matrix(-5.9603 0 0 5.9603 395.2171 544.2716)"  >
<polyline style="stroke: rgb(0,0,0); stroke-width: 2; stroke-dasharray: none; stroke-linecap: round; stroke-dashoffset: 0; stroke-linejoin: round; stroke-miterlimit: 4; fill: none; fill-rule: nonzero; opacity: 1;"  points="-6.5625,11.724 -7.8125,9.068 -6.5625,3.693 -6.3125,-0.432 -7.8125,-5.182 -7.8125,-10.057 -2.5625,-11.724 7.8125,-10.547 " />
</g>
<g transform="matrix(-5.9603 0 0 5.9603 387.022 541.6671)"  >
<polyline style="stroke: rgb(0,0,0); stroke-width: 2; stroke-dasharray: none; stroke-linecap: round; stroke-dashoffset: 0; stroke-linejoin: round; stroke-miterlimit: 4; fill: none; fill-rule: nonzero; opacity: 1;"  points="-0.5625,-4.881 0.5625,-0.131 -0.3825,4.881 " />
</g>
<g transform="matrix(-5.9603 0 0 5.9603 546.5355 501.4829)"  >
<polyline style="stroke: rgb(0,0,0); stroke-width: 2; stroke-dasharray: none; stroke-linecap: round; stroke-dashoffset: 0; stroke-linejoin: round; stroke-miterlimit: 4; fill: none; fill-rule: nonzero; opacity: 1;"  points="4.1055,18.903 0.6395,6.522 -0.8525,-5.119 -2.7045,-7.814 -1.8705,-13.18 -4.1055,-18.903 " />
</g>
<g transform="matrix(-5.9603 0 0 5.9603 609.8271 501.4829)"  >
<polyline style="stroke: rgb(0,0,0); stroke-width: 2; stroke-dasharray: none; stroke-linecap: round; stroke-dashoffset: 0; stroke-linejoin: round; stroke-miterlimit: 4; fill: none; fill-rule: nonzero; opacity: 1;"  points="6.5135,-18.903 -6.5135,-15.045 -0.6625,0.122 -6.4305,-0.17 -2.8465,4.58 -0.8465,6.455 0.2785,9.122 0.2785,13.663 3.8195,16.58 4.8195,18.903 " />
</g>
<g transform="matrix(-5.9603 0 0 5.9603 725.0941 614.1496)"  >
<line style="stroke: rgb(0,0,0); stroke-width: 2; stroke-dasharray: none; stroke-linecap: round; stroke-dashoffset: 0; stroke-linejoin: round; stroke-miterlimit: 4; fill: none; fill-rule: nonzero; opacity: 1;"  x1="-0.54915" y1="0" x2="0.54915" y2="0" />
</g>
<g transform="matrix(-5.9603 0 0 5.9603 517.0889 496.8815)"  >
<polyline style="stroke: rgb(0,0,0); stroke-width: 2; stroke-dasharray: none; stroke-linecap: round; stroke-dashoffset: 0; stroke-linejoin: round; stroke-miterlimit: 4; fill: none; fill-rule: nonzero; opacity: 1;"  points="3.302,-19.675 -3.302,-16.044 -0.835,-8.919 -0.835,0.109 1.135,9.519 -0.74,19.675 " />
</g>
<g transform="matrix(-5.9603 0 0 5.9603 678.2029 546.5993)"  >
<polygon style="stroke: rgb(0,0,0); stroke-width: 1.6; stroke-dasharray: none; stroke-linecap: round; stroke-dashoffset: 0; stroke-linejoin: round; stroke-miterlimit: 4; fill: none; fill-rule: nonzero; opacity: 1;"  points="-1.7085,-2.6665 -1.7085,2.6665 1.7085,-2.1665 " />
</g>
<g transform="matrix(-5.9603 0 0 5.9603 699.9308 614.3969)"  >
<polygon style="stroke: rgb(0,0,0); stroke-width: 1.6; stroke-dasharray: none; stroke-linecap: round; stroke-dashoffset: 0; stroke-linejoin: round; stroke-miterlimit: 4; fill: none; fill-rule: nonzero; opacity: 1;"  points="-2.063,-3.4585 -3.646,-0.7085 -1.313,3.4585 3.646,2.9585 " />
</g>
</svg>