<!DOCTYPE svg PUBLIC "-//W3C//DTD SVG 1.1//EN" "http://www.w3.org/Graphics/SVG/1.1/DTD/svg11.dtd">
<!-- Uploaded to: SVG Repo, www.svgrepo.com, Transformed by: SVG Repo Mixer Tools -->
<svg fill="#000000" height="800px" width="800px" version="1.1" id="Capa_1" xmlns="http://www.w3.org/2000/svg" xmlns:xlink="http://www.w3.org/1999/xlink" viewBox="-49.76 -49.76 597.14 597.14" xml:space="preserve" transform="matrix(-1, 0, 0, 1, 0, 0)">
<g id="SVGRepo_bgCarrier" stroke-width="0">
<path transform="translate(-49.76, -49.76), scale(18.660625)" d="M16,30.97813218086958C18.810050033971912,30.257406726591167,18.918226754776935,25.906605420293506,21.368549341721696,24.353625834536274C23.846186611786344,22.78333459132519,28.458852725262282,24.913753854994305,29.7354771464096,22.27278223116926C30.999238222969478,19.65842119655132,27.19896811022775,17.23806286769139,26.109229074470672,14.546512290068225C25.341780305926953,12.650987665831028,25.358035118176947,10.561082825583371,24.28811070383617,8.818311193663002C23.070775252945218,6.8354256160393545,21.626920414520118,4.945045791145631,19.559425466393222,3.8777101113271826C17.246034900777953,2.6834318402854245,14.597193303765161,2.037513648823079,12.033699951891514,2.492022540551094C9.32560274695156,2.9721697811941667,6.912217529704389,4.492582887917496,4.991051148996766,6.460691518491409C2.993143774551134,8.507416251039249,0.9501564733543575,10.9772358948907,0.9589090434278393,13.837417602440832C0.9674960747128898,16.64350422585138,3.689281759289238,18.54523425646996,5.035565844017416,21.007289300208324C6.259536342910237,23.24565991928496,6.62492541916361,25.934605651275778,8.512357307571635,27.65099945140615C10.57475395090171,29.526502792089445,13.299750342872283,31.670695885170492,16,30.97813218086958" fill="#9773f7" strokewidth="0"/>
</g>
<g id="SVGRepo_tracerCarrier" stroke-linecap="round" stroke-linejoin="round"/>
<g id="SVGRepo_iconCarrier"> <g id="XMLID_116_"> <path id="XMLID_118_" d="M470.314,392.915l-40.059-0.264c-0.043,0-0.083,0-0.117,0c-9.308,0-16.885,7.512-16.944,16.828 c-0.058,9.365,7.473,16.993,16.829,17.06l18.814,0.123c-5.874,10.357-16.995,17.357-29.727,17.383h-0.141 c-18.814-0.049-34.112-15.356-34.112-34.186V284.557c-10.441,8.107-21.918,16.232-33.888,23.258v102.044 c0,12.51,3.631,24.101,9.546,34.186H179.634c-23.969,0-43.461-19.492-43.461-43.46V87.755c0-12.508-3.631-24.1-9.548-34.185 h180.883c23.969,0,43.462,19.493,43.462,43.46v13.478c10.556-8.033,21.634-15.694,32.927-22.992 c-4.756-38.133-36.999-67.834-76.389-67.834c0,0-239.881,0.049-239.964,0.049C30.255,20.03,0,50.409,0,87.755 c0,9.317,7.519,16.886,16.829,16.944l40.059,0.266c0.042,0,0.083,0,0.117,0c9.308,0,16.885-7.513,16.944-16.829 c0.058-9.365-7.473-16.993-16.829-17.059l-18.815-0.125C44.18,60.594,55.3,53.594,68.032,53.57h0.141 c18.814,0.049,34.112,15.355,34.112,34.185v312.83c0,42.649,34.7,77.349,77.35,77.349c0,0,239.881-0.049,239.964-0.049 c37.288-0.299,67.544-30.68,67.544-68.026C487.143,400.544,479.621,392.972,470.314,392.915z"/> <path id="XMLID_117_" d="M495.291,70.348c-1.521-1.521-3.548-2.316-5.6-2.316c-1.183,0-2.382,0.264-3.492,0.81 c-34.293,16.846-104.104,53.803-143.586,93.292c-43.767,43.758-71.74,89.8-71.565,114.497l-26.989,26.988l-34.235,34.235 l41.93-5.989l10.358-10.358l26.923-26.922c0.074,0,0.132,0.032,0.206,0.032c24.738,0,70.64-27.957,114.266-71.583 c14.163-14.163,27.962-32.273,40.664-51.204l-9.201-9.2l15.199-0.009c3.433-5.32,6.791-10.615,10.011-15.926l-17.226-5.039 l25.631-9.233c11.781-20.468,21.593-39.49,28.22-52.984C498.304,76.396,497.684,72.739,495.291,70.348z"/> </g> </g>
</svg>